# xmcd
#
# Track frame offsets:
#	150
#	8553
#	13870
#	21235
#	29766
#	37727
#
# Disc length: 594 seconds
#
# Revision: 1
# Processed by: cddbd v1.5.2PL0 Copyright (c) Steve Scherf et al.
# Submitted via: audiograbber 1.83.01
#
DISCID=3c025006
DTITLE=Bone Marrow - Demo 2018
DYEAR=2018
DGENRE=Death Metal
TTITLE0=A Fiery Hell Awaits Us All
TTITLE1=Bound and Gagged 
TTITLE2=Smart Phone Dumb Cunt
TTITLE3=All You Do is Take
TTITLE4=Luscious Zombie 
TTITLE5=Cockroach 
EXTD=
EXTT0=
EXTT1=
EXTT2=
EXTT3=
EXTT4=
EXTT5=
PLAYORDER=
